<svg width="169" height="39" viewBox="0 0 169 39" fill="none" xmlns="http://www.w3.org/2000/svg">
<path d="M16.9394 4.30891V9.10391H6.92941V14.2839H14.4194V18.9389H6.92941L6.92941 28.8789H0.944414L0.944414 4.30891L16.9394 4.30891ZM26.07 2.97891L26.07 28.8789H20.085L20.085 2.97891H26.07ZM39.2973 29.1589C37.384 29.1589 35.6573 28.7506 34.1173 27.9339C32.6006 27.1172 31.399 25.9506 30.5123 24.4339C29.649 22.9172 29.2173 21.1439 29.2173 19.1139C29.2173 17.1072 29.6606 15.3456 30.5473 13.8289C31.434 12.2889 32.6473 11.1106 34.1873 10.2939C35.7273 9.47724 37.454 9.0689 39.3673 9.0689C41.2806 9.0689 43.0073 9.47724 44.5473 10.2939C46.0873 11.1106 47.3006 12.2889 48.1873 13.8289C49.074 15.3456 49.5173 17.1072 49.5173 19.1139C49.5173 21.1206 49.0623 22.8939 48.1523 24.4339C47.2656 25.9506 46.0406 27.1172 44.4773 27.9339C42.9373 28.7506 41.2106 29.1589 39.2973 29.1589ZM39.2973 23.9789C40.4406 23.9789 41.409 23.5589 42.2023 22.7189C43.019 21.8789 43.4273 20.6772 43.4273 19.1139C43.4273 17.5506 43.0306 16.3489 42.2373 15.5089C41.4673 14.6689 40.5106 14.2489 39.3673 14.2489C38.2006 14.2489 37.2323 14.6689 36.4623 15.5089C35.6923 16.3256 35.3073 17.5272 35.3073 19.1139C35.3073 20.6772 35.6806 21.8789 36.4273 22.7189C37.1973 23.5589 38.154 23.9789 39.2973 23.9789ZM58.6775 12.6039C59.3775 11.5306 60.2525 10.6906 61.3025 10.0839C62.3525 9.45391 63.5191 9.13891 64.8025 9.13891V15.4739H63.1575C61.6641 15.4739 60.5441 15.8006 59.7975 16.4539C59.0508 17.0839 58.6775 18.2039 58.6775 19.8139V28.8789H52.6925V9.34891H58.6775V12.6039ZM97.0602 28.8789H91.0752L81.0652 13.7239V28.8789H75.0802V4.30891H81.0652L91.0752 19.5339V4.30891H97.0602V28.8789ZM100.209 19.0789C100.209 17.0722 100.582 15.3106 101.329 13.7939C102.099 12.2772 103.137 11.1106 104.444 10.2939C105.75 9.47724 107.209 9.0689 108.819 9.0689C110.195 9.0689 111.397 9.3489 112.424 9.9089C113.474 10.4689 114.279 11.2039 114.839 12.1139V9.34891L120.824 9.34891V28.8789H114.839V26.1139C114.255 27.0239 113.439 27.7589 112.389 28.3189C111.362 28.8789 110.16 29.1589 108.784 29.1589C107.197 29.1589 105.75 28.7506 104.444 27.9339C103.137 27.0939 102.099 25.9156 101.329 24.3989C100.582 22.8589 100.209 21.0856 100.209 19.0789ZM114.839 19.1139C114.839 17.6206 114.419 16.4422 113.579 15.5789C112.762 14.7156 111.759 14.2839 110.569 14.2839C109.379 14.2839 108.364 14.7156 107.524 15.5789C106.707 16.4189 106.299 17.5856 106.299 19.0789C106.299 20.5722 106.707 21.7622 107.524 22.6489C108.364 23.5122 109.379 23.9439 110.569 23.9439C111.759 23.9439 112.762 23.5122 113.579 22.6489C114.419 21.7856 114.839 20.6072 114.839 19.1139ZM132.573 9.0689C133.95 9.0689 135.152 9.3489 136.178 9.9089C137.228 10.4689 138.033 11.2039 138.593 12.1139V9.34891H144.578V28.8439C144.578 30.6406 144.217 32.2622 143.493 33.7089C142.793 35.1789 141.708 36.3456 140.238 37.2089C138.792 38.0722 136.983 38.5039 134.813 38.5039C131.92 38.5039 129.575 37.8156 127.778 36.4389C125.982 35.0856 124.955 33.2422 124.698 30.9089H130.613C130.8 31.6556 131.243 32.2389 131.943 32.6589C132.643 33.1022 133.507 33.3239 134.533 33.3239C135.77 33.3239 136.75 32.9622 137.473 32.2389C138.22 31.5389 138.593 30.4072 138.593 28.8439V26.0789C138.01 26.9889 137.205 27.7356 136.178 28.3189C135.152 28.8789 133.95 29.1589 132.573 29.1589C130.963 29.1589 129.505 28.7506 128.198 27.9339C126.892 27.0939 125.853 25.9156 125.083 24.3989C124.337 22.8589 123.963 21.0856 123.963 19.0789C123.963 17.0722 124.337 15.3106 125.083 13.7939C125.853 12.2772 126.892 11.1106 128.198 10.2939C129.505 9.47724 130.963 9.0689 132.573 9.0689ZM138.593 19.1139C138.593 17.6206 138.173 16.4422 137.333 15.5789C136.517 14.7156 135.513 14.2839 134.323 14.2839C133.133 14.2839 132.118 14.7156 131.278 15.5789C130.462 16.4189 130.053 17.5856 130.053 19.0789C130.053 20.5722 130.462 21.7622 131.278 22.6489C132.118 23.5122 133.133 23.9439 134.323 23.9439C135.513 23.9439 136.517 23.5122 137.333 22.6489C138.173 21.7856 138.593 20.6072 138.593 19.1139ZM157.798 29.1589C155.885 29.1589 154.158 28.7506 152.618 27.9339C151.102 27.1172 149.9 25.9506 149.013 24.4339C148.15 22.9172 147.718 21.1439 147.718 19.1139C147.718 17.1072 148.162 15.3456 149.048 13.8289C149.935 12.2889 151.148 11.1106 152.688 10.2939C154.228 9.47724 155.955 9.0689 157.868 9.0689C159.782 9.0689 161.508 9.47724 163.048 10.2939C164.588 11.1106 165.802 12.2889 166.688 13.8289C167.575 15.3456 168.018 17.1072 168.018 19.1139C168.018 21.1206 167.563 22.8939 166.653 24.4339C165.767 25.9506 164.542 27.1172 162.978 27.9339C161.438 28.7506 159.712 29.1589 157.798 29.1589ZM157.798 23.9789C158.942 23.9789 159.91 23.5589 160.703 22.7189C161.52 21.8789 161.928 20.6772 161.928 19.1139C161.928 17.5506 161.532 16.3489 160.738 15.5089C159.968 14.6689 159.012 14.2489 157.868 14.2489C156.702 14.2489 155.733 14.6689 154.963 15.5089C154.193 16.3256 153.808 17.5272 153.808 19.1139C153.808 20.6772 154.182 21.8789 154.928 22.7189C155.698 23.5589 156.655 23.9789 157.798 23.9789ZM158.358 5.0089L152.933 7.87891V3.7489L158.358 0.983904L163.783 3.7489V7.87891L158.358 5.0089Z" fill="black"/>
</svg>
