<svg width="1440" height="463" viewBox="0 0 1440 463" fill="none" xmlns="http://www.w3.org/2000/svg">
<path fill-rule="evenodd" clip-rule="evenodd" d="M0 0H60C120 0 240 0 360 44C480 87 600 173 720 202C840 231 960 202 1080 195C1200 188 1320 202 1380 209L1440 216V346H1380C1320 346 1200 346 1080 346C960 346 840 346 720 346C600 346 480 346 360 346C240 346 120 346 60 346H0V0Z" fill="#FF5647"/>
<path fill-rule="evenodd" clip-rule="evenodd" d="M0 117H60C120 117 240 117 360 161C480 204 600 290 720 319C840 348 960 319 1080 312C1200 305 1320 319 1380 326L1440 333V463H1380C1320 463 1200 463 1080 463C960 463 840 463 720 463C600 463 480 463 360 463C240 463 120 463 60 463H0V117Z" fill="#016494"/>
</svg>
