<svg width="59" height="59" viewBox="0 0 59 59" fill="none" xmlns="http://www.w3.org/2000/svg">
<path d="M29.359 15.3598C26.6111 15.3598 23.925 16.1744 21.6402 17.7006C19.3555 19.2269 17.5747 21.3962 16.5231 23.9342C15.4716 26.4722 15.1964 29.265 15.7325 31.9594C16.2686 34.6537 17.5918 37.1287 19.5348 39.0712C21.4779 41.0137 23.9535 42.3366 26.6485 42.8726C29.3436 43.4085 32.1371 43.1334 34.6758 42.0821C37.2145 41.0309 39.3843 39.2506 40.9109 36.9664C42.4376 34.6822 43.2524 31.9968 43.2524 29.2496C43.2482 25.5671 41.783 22.0366 39.1784 19.4327C36.5738 16.8288 33.0424 15.364 29.359 15.3598ZM29.359 36.7288C27.8794 36.7288 26.433 36.2901 25.2027 35.4683C23.9725 34.6465 23.0136 33.4784 22.4474 32.1118C21.8811 30.7451 21.733 29.2413 22.0217 27.7905C22.3103 26.3397 23.0228 25.007 24.0691 23.9611C25.1153 22.9151 26.4483 22.2028 27.8995 21.9142C29.3507 21.6256 30.8549 21.7737 32.2219 22.3398C33.5889 22.9059 34.7572 23.8645 35.5793 25.0944C36.4013 26.3244 36.8401 27.7704 36.8401 29.2496C36.8401 31.2332 36.0519 33.1356 34.6489 34.5382C33.2459 35.9408 31.3431 36.7288 29.359 36.7288ZM53.9397 29.4606V29.0386L57.6802 24.3615C57.9942 23.9696 58.2117 23.5094 58.3152 23.0181C58.4187 22.5267 58.4053 22.0179 58.276 21.5327C57.601 18.9874 56.5921 16.5426 55.2756 14.262C55.0219 13.827 54.6694 13.458 54.2465 13.1846C53.8237 12.9113 53.3423 12.7414 52.8415 12.6887L46.8887 12.0209L46.5922 11.7244L45.9242 5.77046C45.8711 5.27026 45.7009 4.7896 45.4276 4.36733C45.1542 3.94506 44.7852 3.59304 44.3505 3.33974C42.0691 2.01937 39.6227 1.00711 37.0752 0.329381C36.5894 0.202072 36.0805 0.190615 35.5895 0.295934C35.0986 0.401253 34.6392 0.620403 34.2484 0.935726L29.5701 4.6753H29.1479L24.4696 0.935726C24.0776 0.621819 23.6173 0.404371 23.1258 0.300907C22.6344 0.197442 22.1255 0.210856 21.6401 0.340066C19.0935 1.0191 16.648 2.03224 14.3674 3.35309C13.9341 3.60534 13.566 3.95569 13.2927 4.37599C13.0194 4.79629 12.8485 5.27482 12.7937 5.77313L12.1258 11.7244L11.8292 12.0209L5.87375 12.6887C5.37343 12.7418 4.89264 12.9119 4.47026 13.1852C4.04788 13.4585 3.69577 13.8274 3.4424 14.262C2.12541 16.5434 1.11648 18.9891 0.441958 21.5354C0.313156 22.0202 0.299966 22.5285 0.403448 23.0193C0.506931 23.5102 0.724198 23.9699 1.03777 24.3615L4.77831 29.0386V29.4606L1.03777 34.1378C0.723785 34.5297 0.50628 34.9898 0.402789 35.4812C0.299298 35.9725 0.312715 36.4813 0.441958 36.9665C1.12201 39.5126 2.13631 41.9574 3.45843 44.2373C3.71049 44.6702 4.06051 45.038 4.48042 45.3112C4.90034 45.5844 5.37846 45.7554 5.87643 45.8106L11.8292 46.473L12.1258 46.7695L12.7937 52.7288C12.8469 53.229 13.017 53.7096 13.2904 54.1319C13.5638 54.5542 13.9328 54.9062 14.3674 55.1595C16.6489 56.4799 19.0953 57.4921 21.6428 58.1698C22.1285 58.2972 22.6374 58.3086 23.1284 58.2033C23.6194 58.098 24.0788 57.8788 24.4696 57.5635L29.1479 53.8239H29.5701L34.2484 57.5635C34.6404 57.8774 35.1007 58.0949 35.5921 58.1983C36.0836 58.3018 36.5925 58.2884 37.0779 58.1592C39.6238 57.4843 42.0693 56.4757 44.3505 55.1595C44.7849 54.9079 45.154 54.5578 45.4283 54.1374C45.7025 53.7171 45.8742 53.2383 45.9296 52.7395L46.5922 46.7882L46.8887 46.4917L52.8442 45.8106C53.3431 45.7553 53.8221 45.5836 54.2426 45.3094C54.663 45.0352 55.0132 44.6661 55.2649 44.2319C56.5856 41.9511 57.5981 39.5053 58.276 36.9585C58.4039 36.4744 58.4167 35.9672 58.3132 35.4774C58.2097 34.9875 57.9929 34.5288 57.6802 34.1378L53.9397 29.4606ZM47.4953 28.1545C47.538 28.8839 47.538 29.6153 47.4953 30.3448C47.4475 31.1378 47.696 31.9202 48.1926 32.5404L51.6232 36.8276C51.2994 37.7859 50.9129 38.7219 50.4663 39.6296L45.0078 40.2359C44.2175 40.3263 43.489 40.7071 42.9639 41.3044C42.4785 41.8511 41.961 42.3684 41.4142 42.8536C40.8167 43.3786 40.4358 44.107 40.3455 44.897L39.7416 50.3515C38.8339 50.7998 37.8976 51.1879 36.9389 51.5134L32.6507 48.081C32.0816 47.627 31.3749 47.3802 30.6468 47.3812H30.4544C29.7248 47.4239 28.9932 47.4239 28.2635 47.3812C27.4709 47.3342 26.6888 47.5815 26.0673 48.0757L21.7791 51.5081C20.8205 51.1843 19.8842 50.7979 18.9763 50.3515L18.3698 44.8944C18.2795 44.1043 17.8986 43.376 17.3011 42.851C16.7543 42.3657 16.2368 41.8484 15.7514 41.3017C15.2263 40.7044 14.4978 40.3236 13.7075 40.2333L8.25167 39.6296C7.80326 38.7221 7.41501 37.786 7.08943 36.8276L10.52 32.5404C11.0166 31.9202 11.2651 31.1378 11.2174 30.3448C11.1746 29.6153 11.1746 28.8839 11.2174 28.1545C11.2651 27.3615 11.0166 26.579 10.52 25.9588L7.09477 21.6716C7.41861 20.7133 7.80508 19.7773 8.25167 18.8696L13.7102 18.2633C14.5005 18.173 15.229 17.7921 15.7541 17.1948C16.2395 16.6482 16.7569 16.1308 17.3038 15.6456C17.9012 15.1206 18.2821 14.3923 18.3725 13.6022L18.9763 8.14775C19.8841 7.69946 20.8204 7.31131 21.7791 6.98582L26.0673 10.4182C26.6888 10.9123 27.4709 11.1596 28.2635 11.1127C28.9932 11.07 29.7248 11.07 30.4544 11.1127C31.2473 11.1612 32.0299 10.9137 32.6507 10.4182L36.9389 6.98582C37.8976 7.31131 38.8339 7.69946 39.7416 8.14775L40.3482 13.6049C40.4385 14.3949 40.8194 15.1233 41.4169 15.6483C41.9637 16.1335 42.4812 16.6508 42.9665 17.1975C43.4917 17.7948 44.2202 18.1756 45.0105 18.266L50.4663 18.8696C50.9147 19.7772 51.303 20.7132 51.6285 21.6716L48.1979 25.9588C47.6994 26.5782 47.449 27.3608 47.4953 28.1545Z" fill="#4E2252"/>
</svg>
