<svg width="58" height="58" viewBox="0 0 58 58" fill="none" xmlns="http://www.w3.org/2000/svg">
<path d="M56.4189 28.1718C56.1639 28.29 55.8882 28.3566 55.6075 28.3679C55.3268 28.3791 55.0466 28.3348 54.783 28.2374C52.6117 27.4228 50.2688 27.178 47.9766 27.5261C45.6844 27.8743 43.519 28.8039 41.6857 30.2268C46.45 30.35 51.1079 31.6516 55.2457 34.0227C56.2575 34.5954 57.0025 35.546 57.3182 36.6671C57.634 37.7883 57.4948 38.9892 56.9312 40.0079C56.3675 41.0266 55.4251 41.7806 54.3093 42.1054C53.1935 42.4303 51.9949 42.2996 50.9748 41.742C48.5254 40.3165 45.8013 39.4304 42.9839 39.1426C40.1664 38.8548 37.3201 39.1719 34.6343 40.0729C35.3202 41.3929 35.8341 42.7972 36.1597 44.2507C36.2764 44.6839 36.3337 45.1335 36.3316 45.581C36.4011 46.1484 36.3494 46.7241 36.18 47.2699C36.0105 47.8157 35.7272 48.3191 35.3489 48.7467C35.1851 48.911 35.0029 49.0547 34.8063 49.1758C34.2014 49.7585 33.4578 50.1762 32.6463 50.3891L6.5662 57.3898C5.72533 57.6148 4.84019 57.6137 3.99986 57.3867C3.15953 57.1597 2.39365 56.7147 1.7793 56.0966C1.16495 55.4785 0.723796 54.7091 0.500241 53.8657C0.276686 53.0223 0.278614 52.1348 0.50583 51.2924L7.48755 25.1375C7.70196 24.3145 8.12518 23.5613 8.716 22.951C8.83256 22.7617 8.96991 22.5861 9.12548 22.4275C9.53855 22.0575 10.0243 21.7783 10.5515 21.6079C11.0786 21.4374 11.6356 21.3796 12.1864 21.438C12.6839 21.4257 13.1814 21.4893 13.6605 21.6269C14.9321 21.9149 16.165 22.3532 17.3336 22.9326C17.9069 19.6067 17.3541 16.1824 15.7591 13.2096C15.4578 12.6461 15.392 11.9856 15.5763 11.3734C15.7606 10.7613 16.1799 10.2476 16.7419 9.9454C17.3039 9.64321 17.9626 9.57726 18.5731 9.76207C19.1836 9.94687 19.6959 10.3673 19.9973 10.9308C22.3918 15.4038 22.9952 20.624 21.6844 25.5275C23.2737 26.6588 24.7848 27.8969 26.2071 29.2331C26.6385 28.7947 27.2236 28.5426 27.8377 28.5306C28.4518 28.5187 29.0462 28.7478 29.4942 29.1691C29.9422 29.5905 30.2083 30.1707 30.2356 30.7859C30.263 31.4012 30.0495 32.0028 29.6407 32.4625C32.6067 31.2986 35.7252 30.5718 38.8991 30.3048C38.6474 30.1023 38.4444 29.8455 38.3052 29.5535C38.166 29.2616 38.0941 28.942 38.0949 28.6184C38.0957 28.2947 38.1691 27.9755 38.3097 27.6842C38.4504 27.3929 38.6546 27.1372 38.9073 26.9359C41.3239 25.0194 44.193 23.7611 47.2369 23.2828C50.2808 22.8044 53.3963 23.1222 56.2817 24.2054C56.6772 24.3556 57.0196 24.6197 57.2659 24.9644C57.5122 25.3091 57.6514 25.719 57.666 26.1428C57.6807 26.5666 57.5701 26.9853 57.3482 27.3463C57.1264 27.7072 56.8031 27.9944 56.4189 28.1718ZM19.7946 43.2755L19.424 42.9573L19.7639 43.2488L19.7946 43.2755ZM19.7946 43.2755L20.0649 43.5055C19.9753 43.4275 19.8852 43.3523 19.7946 43.2755ZM4.53311 55.4045C5.02449 55.538 5.54454 55.538 6.03797 55.4066L7.22138 55.0966C5.54787 53.8799 4.04463 52.4437 2.75185 50.8264L2.48364 51.8324C2.38417 52.2018 2.35828 52.5874 2.40746 52.9669C2.45663 53.3464 2.57991 53.7125 2.77023 54.0442C2.96056 54.376 3.21421 54.6669 3.5167 54.9003C3.81918 55.1337 4.16456 55.305 4.53311 55.4045ZM7.8008 50.2577C9.25775 51.6055 10.8976 52.7397 12.6716 53.6267L18.4003 52.089C16.171 50.7681 14.091 49.209 12.1966 47.439C9.71988 45.0926 7.55747 42.4336 5.76361 39.5288L4.13796 45.6241C5.13303 47.3354 6.36639 48.8956 7.8008 50.2577ZM15.0016 44.4375C17.7339 46.9671 20.8687 49.021 24.2764 50.5143L29.3765 49.1429C24.7125 47.2939 20.511 44.4392 17.0695 40.7812C15.8644 39.5796 14.727 38.3116 13.6626 36.9831C13.1917 36.398 12.7535 35.8129 12.344 35.232C10.812 33.1578 9.58978 30.8706 8.716 28.4427L7.27666 33.9057C9.23059 37.8343 11.8436 41.3968 15.0016 44.4375ZM54.996 36.4104C54.795 36.1663 54.5471 35.9652 54.2671 35.8191H54.2568C50.7869 33.829 46.9186 32.6387 42.9328 32.3343C38.9469 32.03 34.9435 32.6194 31.2131 34.0597L30.82 34.2034L30.8384 34.2239C26.9593 35.7815 23.4961 38.225 20.7241 41.3601C21.2544 41.8261 21.7683 42.2531 22.2781 42.6637C22.9927 43.2386 23.7113 43.7703 24.5303 44.3061C26.7646 41.7278 29.5967 39.7397 32.7773 38.5167C35.8787 37.2969 39.2137 36.7914 42.5361 37.0377C45.8584 37.2839 49.0832 38.2756 51.9719 39.9394C52.4485 40.2261 53.0107 40.3344 53.5593 40.2454C54.1079 40.1564 54.6073 39.8756 54.9694 39.4529C55.3314 39.0302 55.5326 38.4927 55.5375 37.9355C55.5424 37.3783 55.3505 36.8394 54.996 36.4104Z" fill="#4E2252"/>
<path d="M29.4249 22.8894C29.6521 22.9653 29.8876 23.0208 30.1251 23.0557C30.5039 23.1522 30.8888 23.2199 31.2778 23.261C31.463 24.1548 31.9432 24.9599 32.6408 25.5464C33.3385 26.1329 34.2129 26.4667 35.1229 26.4937C36.0329 26.5208 36.9254 26.2396 37.6565 25.6955C38.3875 25.1514 38.9144 24.3762 39.1522 23.495C39.5985 21.8814 39.8278 20.2144 39.834 18.5391C40.811 17.21 41.6146 15.7612 42.2253 14.2279L42.252 14.1663L42.471 13.6325L42.7515 12.9222C43.0512 12.144 43.3345 11.3596 43.6012 10.5695L43.6565 10.4052L43.677 10.3395C43.8162 9.92893 43.9554 9.47317 44.0865 9.0133C44.1643 8.74846 44.238 8.47952 44.3096 8.20853C44.6462 7.00687 44.867 5.7756 44.9689 4.53164V4.47005C45.0044 3.45186 44.6611 2.45679 44.0057 1.67823C43.3504 0.899677 42.4297 0.393239 41.4228 0.25734C40.6263 0.15486 39.8175 0.294314 39.101 0.65767C38.4717 0.977186 37.9354 1.45428 37.544 2.04273C37.1527 2.63117 36.9195 3.311 36.8672 4.01635V4.03688C36.7077 5.29225 36.4125 6.5265 35.9868 7.71787C35.7821 8.33376 35.5774 8.91886 35.3726 9.44237C34.9631 9.23091 34.5332 9.0523 34.095 8.9086L34.0561 8.89012C32.2125 8.30239 30.2122 8.46672 28.4886 9.3475C26.7649 10.2283 25.4568 11.7546 24.8477 13.5957C24.2385 15.4368 24.3773 17.4445 25.2341 19.1837C26.0908 20.9228 27.5965 22.2535 29.4249 22.8873V22.8894ZM37.1764 22.953C37.0675 23.3584 36.8345 23.7193 36.5104 23.985C36.1863 24.2507 35.7873 24.4078 35.3695 24.4344C34.9516 24.4609 34.536 24.3554 34.1811 24.1328C33.8262 23.9101 33.5497 23.5816 33.3907 23.1932C33.7797 23.1234 34.1626 23.0249 34.5352 22.8976C35.6615 22.4958 36.6975 21.8748 37.5838 21.0704C37.4815 21.7069 37.3463 22.333 37.1764 22.953ZM26.7141 14.2073C26.933 13.5454 27.2799 12.9331 27.7349 12.4056C28.1899 11.8781 28.7442 11.4456 29.3659 11.133C29.9876 10.8203 30.6647 10.6335 31.3585 10.5833C32.0523 10.5331 32.7491 10.6205 33.4091 10.8405L33.4706 10.861C33.8698 10.9883 34.2547 11.1566 34.6192 11.3619L34.5762 11.4625V11.4871C34.1184 12.5554 33.4966 13.5453 32.7335 14.4208L32.7007 14.4537L32.6495 14.5132C32.5843 14.5905 32.516 14.6651 32.4448 14.737C32.3772 14.7093 32.3089 14.6833 32.2401 14.659L32.1786 14.6385C31.8528 14.5304 31.4976 14.5562 31.1906 14.7101C30.8837 14.864 30.65 15.1335 30.5407 15.4597C30.4794 15.6186 30.4531 15.789 30.4637 15.9591C30.4743 16.1292 30.5215 16.295 30.6021 16.4451C30.725 16.7079 30.9338 16.9193 31.1938 17.0446C31.2634 17.061 31.331 17.0795 31.3986 17.102C31.5828 17.1677 31.7753 17.2108 31.9698 17.2273C32.2815 17.2457 32.5919 17.1745 32.8645 17.022C33.0078 16.9481 33.145 16.8639 33.274 16.7674C33.618 16.4964 33.9333 16.1926 34.2117 15.8538L34.2322 15.8333C35.147 14.7998 35.8914 13.6264 36.4373 12.3576C36.501 12.212 36.5611 12.0648 36.6175 11.9162C36.6201 11.9061 36.6201 11.8955 36.6175 11.8854L36.6379 11.8361C36.7519 11.5686 36.8624 11.2996 36.9696 11.0293L37.0392 10.8507L37.1088 10.6701C37.9769 8.58628 38.583 6.40191 38.9167 4.16827C38.9556 3.63561 39.2002 3.13919 39.5985 2.78456C39.9952 2.43058 40.5159 2.24895 41.046 2.27953C41.4862 2.30416 41.906 2.47661 42.2335 2.77224C42.4626 2.97362 42.6439 3.22372 42.7644 3.50429C42.8848 3.78487 42.9413 4.08886 42.9297 4.39409C42.9092 4.72052 42.8703 5.06542 42.8171 5.42058C42.6533 6.43065 42.4239 7.4325 42.1291 8.41177L42.0431 8.69919C41.6713 9.92255 41.2512 11.1306 40.784 12.3206L40.7164 12.4931C40.6004 12.7878 40.4817 13.0814 40.3601 13.3738L40.3294 13.4477L40.1534 13.8748C39.4334 15.5497 38.4566 17.1013 37.2583 18.4734C36.2993 19.6971 34.9919 20.5993 33.5095 21.0602C32.8142 21.2495 32.0886 21.2998 31.374 21.208C31.0822 21.1717 30.7934 21.1141 30.51 21.0355C30.3608 21.0226 30.2136 20.9916 30.0718 20.9432C29.4102 20.7221 28.7984 20.3725 28.2715 19.9143C27.7447 19.4561 27.313 18.8983 27.0012 18.2728C26.6893 17.6473 26.5035 16.9663 26.4542 16.2687C26.405 15.5711 26.4933 14.8707 26.7141 14.2073ZM22.6458 4.28734C22.4315 4.43965 22.1889 4.54734 21.9324 4.60404C21.6758 4.66074 21.4106 4.6653 21.1522 4.61745C20.8939 4.56959 20.6478 4.4703 20.4284 4.32544C20.2089 4.18058 20.0207 3.99308 19.8748 3.77404C19.7289 3.55499 19.6283 3.30884 19.5789 3.05013C19.5294 2.79143 19.5322 2.52541 19.5871 2.2678C19.642 2.0102 19.7478 1.76624 19.8983 1.55033C20.0487 1.33443 20.2409 1.15096 20.4633 1.01078C20.8966 0.737643 21.4192 0.644791 21.9198 0.751973C22.4203 0.859156 22.8595 1.15792 23.1438 1.58472C23.4281 2.01153 23.5351 2.5327 23.4421 3.03741C23.3491 3.54213 23.0635 3.99056 22.6458 4.28734ZM47.0266 42.9778C47.243 42.8236 47.4881 42.7146 47.7473 42.657C48.0066 42.5995 48.2747 42.5947 48.5358 42.6429C48.7969 42.691 49.0458 42.7912 49.2676 42.9375C49.4894 43.0837 49.6798 43.2731 49.8274 43.4944C49.975 43.7157 50.0768 43.9644 50.1269 44.2259C50.1769 44.4873 50.1742 44.7562 50.1189 45.0165C50.0635 45.2769 49.9567 45.5235 49.8046 45.7418C49.6526 45.96 49.4584 46.1455 49.2337 46.2872C48.796 46.5632 48.2682 46.6571 47.7625 46.549C47.2568 46.4409 46.8131 46.1394 46.5256 45.7084C46.2382 45.2774 46.1297 44.751 46.2233 44.2411C46.3168 43.7312 46.605 43.278 47.0266 42.9778ZM49.0719 14.4126C49.7018 14.4126 50.3059 14.1617 50.7513 13.7151C51.1967 13.2685 51.4469 12.6628 51.4469 12.0312C51.4469 11.3996 51.1967 10.7938 50.7513 10.3472C50.3059 9.90062 49.7018 9.64972 49.0719 9.64972C48.442 9.64972 47.8379 9.90062 47.3925 10.3472C46.9471 10.7938 46.6969 11.3996 46.6969 12.0312C46.6969 12.6628 46.9471 13.2685 47.3925 13.7151C47.8379 14.1617 48.442 14.4126 49.0719 14.4126ZM11.5713 14.0103C11.3122 14.1918 11.0195 14.3197 10.7105 14.3863C10.4014 14.453 10.0822 14.4572 9.77154 14.3985C9.46087 14.3399 9.16501 14.2196 8.90129 14.0448C8.63757 13.87 8.41131 13.6442 8.23577 13.3806C8.06022 13.117 7.93893 12.8209 7.879 12.5096C7.81908 12.1984 7.82172 11.8783 7.88677 11.5681C7.95183 11.2579 8.07799 10.9638 8.25785 10.7032C8.43772 10.4425 8.66768 10.2204 8.93425 10.0501C9.45825 9.69941 10.0997 9.57184 10.7175 9.69543C11.3353 9.81902 11.8789 10.1836 12.2286 10.7091C12.5782 11.2345 12.7055 11.8777 12.5822 12.4972C12.459 13.1166 12.0953 13.6617 11.5713 14.0123V14.0103Z" fill="#4E2252"/>
</svg>
