<svg width="58" height="58" viewBox="0 0 58 58" fill="none" xmlns="http://www.w3.org/2000/svg">
<path d="M7.50066 51.0056H18.2507V31.3484H39.7506V51.0056H50.5006V21.5198L29.0007 6.77699L7.50066 21.5198V51.0056ZM7.50066 57.5579C5.52982 57.5579 3.84207 56.9158 2.43741 55.6315C1.03274 54.3473 0.331602 52.8053 0.33399 51.0056V21.5198C0.33399 20.4824 0.588406 19.4995 1.09724 18.5713C1.60607 17.643 2.30721 16.8786 3.20066 16.2779L24.7007 1.53509C25.3576 1.09826 26.0444 0.770641 26.7611 0.552228C27.4777 0.333815 28.2243 0.224609 29.0007 0.224609C29.777 0.224609 30.5236 0.333815 31.2402 0.552228C31.9569 0.770641 32.6437 1.09826 33.3006 1.53509L54.8006 16.2779C55.6965 16.8786 56.3988 17.643 56.9076 18.5713C57.4165 19.4995 57.6697 20.4824 57.6673 21.5198V51.0056C57.6673 52.8075 56.965 54.3505 55.5603 55.6348C54.1556 56.9191 52.4691 57.5601 50.5006 57.5579H32.584V37.9008H25.4173V57.5579H7.50066Z" fill="#4E2252"/>
</svg>
